# xmcd
#
# Track frame offsets:
#	150
#	10752
#	24765
#	47147
#	71742
#	87735
#	109512
#	131507
#	140875
#	154365
#	166972
#	181770
#
# Disc length: 2697 seconds
#
# Revision: 1
# Processed by: cddbd v1.5.1PL0 Copyright (c) Steve Scherf et al.
# Submitted via: audiograbber 1.83.01
#
DISCID=9e0a870c
DTITLE=VARIOUS ARTIST - Salty and Oh So Summer
DYEAR=2002
DGENRE=Salsa
TTITLE0=Tito Rodriguez - Mantequita
TTITLE1=Patato - Yo Tengo Ritmo
TTITLE2=Sidestepper - Bacalao Sala'o
TTITLE3=Tito Puente - Ran Kan Kan Lam
TTITLE4=Bebel Gilberto - So Nice [Summer Samba]
TTITLE5=Cubanismo - Aprovecha
TTITLE6=Jack Costanzo - La La La
TTITLE7=Charlie Palmieri - Moonlight Cocktail
TTITLE8=Beny More - Adios Palma Soriano
TTITLE9=Celia Cruz - Ritmo De Mi Cuba 
TTITLE10=Dave Pike - Back to The Roots
TTITLE11=Johnny Blas - Maz Azuncar
EXTD=
EXTT0=
EXTT1=
EXTT2=
EXTT3=
EXTT4=
EXTT5=
EXTT6=
EXTT7=
EXTT8=
EXTT9=
EXTT10=
EXTT11=
PLAYORDER=
